<svg xmlns="http://www.w3.org/2000/svg" xmlns:xlink="http://www.w3.org/1999/xlink" version="1.1" width="256" height="256" viewBox="0 0 256 256" xml:space="preserve">

<defs>
</defs>
<g style="stroke: none; stroke-width: 0; stroke-dasharray: none; stroke-linecap: butt; stroke-linejoin: miter; stroke-miterlimit: 10; fill: none; fill-rule: nonzero; opacity: 1;" transform="translate(1.4065934065934016 1.4065934065934016) scale(2.81 2.81)" >
	<path d="M 45 20.85 c -0.003 0 -0.007 0 -0.011 0 c -0.552 -0.006 -0.995 -0.458 -0.989 -1.011 C 44.09 11.558 41.269 5 36.262 1.847 c -0.467 -0.294 -0.608 -0.912 -0.313 -1.379 C 36.242 0 36.859 -0.141 37.327 0.154 c 5.609 3.531 8.77 10.714 8.673 19.706 C 45.994 20.41 45.547 20.85 45 20.85 z" style="stroke: none; stroke-width: 1; stroke-dasharray: none; stroke-linecap: butt; stroke-linejoin: miter; stroke-miterlimit: 10; fill: rgb(0,0,0); fill-rule: nonzero; opacity: 1;" transform=" matrix(1 0 0 1 0 0) " stroke-linecap="round" />
	<path d="M 45 90 C 25.384 90 9.425 74.041 9.425 54.425 S 25.384 18.85 45 18.85 s 35.575 15.959 35.575 35.575 S 64.616 90 45 90 z M 45 20.85 c -18.513 0 -33.575 15.062 -33.575 33.575 C 11.425 72.939 26.487 88 45 88 c 18.514 0 33.575 -15.061 33.575 -33.575 C 78.575 35.912 63.514 20.85 45 20.85 z" style="stroke: none; stroke-width: 1; stroke-dasharray: none; stroke-linecap: butt; stroke-linejoin: miter; stroke-miterlimit: 10; fill: rgb(0,0,0); fill-rule: nonzero; opacity: 1;" transform=" matrix(1 0 0 1 0 0) " stroke-linecap="round" />
	<path d="M 56.534 16.657 c -0.231 0 -0.462 -0.006 -0.694 -0.019 c -4.809 -0.253 -9.729 -3.094 -13.856 -7.999 c -0.339 -0.402 -0.308 -0.999 0.071 -1.363 c 0.244 -0.235 0.49 -0.46 0.738 -0.675 c 0.6 -0.52 1.251 -1.007 1.935 -1.447 c 0.376 -0.242 0.754 -0.47 1.135 -0.67 l 0.167 -0.083 l 0.527 0.856 l -0.449 -0.893 c 0.323 -0.163 0.649 -0.31 0.976 -0.445 c 3.642 -1.496 7.635 -1.304 11.547 0.558 l 0.161 0.074 c 0.73 0.356 1.467 0.777 2.191 1.252 l 0.115 0.074 l -0.441 0.911 l 0.559 -0.83 c 0.336 0.227 0.669 0.466 0.999 0.715 c 0.335 0.252 0.667 0.514 0.996 0.79 c 0.009 0.007 0.079 0.066 0.088 0.074 c 0.34 0.286 0.696 0.61 1.05 0.944 c 0.816 0.772 1.595 1.597 2.315 2.454 c 0.339 0.403 0.307 1 -0.072 1.364 C 63.619 15.159 60.154 16.657 56.534 16.657 z M 44.145 8.077 c 3.623 4.031 7.785 6.353 11.8 6.565 c 3.076 0.164 5.949 -0.896 8.558 -3.144 c -0.487 -0.541 -0.999 -1.064 -1.527 -1.563 c -0.325 -0.307 -0.654 -0.607 -0.989 -0.89 c -0.361 -0.302 -0.666 -0.542 -0.975 -0.774 c -0.302 -0.228 -0.605 -0.447 -0.912 -0.653 c -0.003 -0.002 -0.13 -0.09 -0.133 -0.092 C 59.232 7.047 58.57 6.668 57.92 6.35 c -0.001 0 -0.147 -0.067 -0.148 -0.067 c -3.39 -1.613 -6.821 -1.789 -9.927 -0.514 c -0.28 0.115 -0.56 0.242 -0.838 0.381 c 0 0 -0.001 0.001 -0.002 0.001 L 46.79 6.256 c -0.326 0.171 -0.654 0.37 -0.98 0.58 C 45.214 7.219 44.668 7.626 44.145 8.077 z" style="stroke: none; stroke-width: 1; stroke-dasharray: none; stroke-linecap: butt; stroke-linejoin: miter; stroke-miterlimit: 10; fill: rgb(0,0,0); fill-rule: nonzero; opacity: 1;" transform=" matrix(1 0 0 1 0 0) " stroke-linecap="round" />
	<path d="M 20.557 60.701 c -0.461 0 -0.876 -0.321 -0.977 -0.79 C 19.196 58.119 19 56.274 19 54.425 c 0 -9.126 4.879 -17.696 12.732 -22.364 c 0.476 -0.283 1.088 -0.127 1.371 0.348 c 0.282 0.475 0.126 1.088 -0.348 1.371 C 25.504 38.09 21 46 21 54.425 c 0 1.707 0.18 3.412 0.535 5.066 c 0.116 0.54 -0.228 1.071 -0.768 1.187 C 20.697 60.695 20.626 60.701 20.557 60.701 z" style="stroke: none; stroke-width: 1; stroke-dasharray: none; stroke-linecap: butt; stroke-linejoin: miter; stroke-miterlimit: 10; fill: rgb(0,0,0); fill-rule: nonzero; opacity: 1;" transform=" matrix(1 0 0 1 0 0) " stroke-linecap="round" />
	<path d="M 26.645 72.398 c -0.27 0 -0.538 -0.107 -0.735 -0.321 c -1.488 -1.608 -2.768 -3.399 -3.805 -5.321 c -0.262 -0.485 -0.081 -1.093 0.405 -1.354 c 0.487 -0.265 1.093 -0.08 1.355 0.405 c 0.958 1.774 2.14 3.427 3.514 4.913 c 0.375 0.405 0.35 1.038 -0.055 1.413 C 27.131 72.31 26.887 72.398 26.645 72.398 z" style="stroke: none; stroke-width: 1; stroke-dasharray: none; stroke-linecap: butt; stroke-linejoin: miter; stroke-miterlimit: 10; fill: rgb(0,0,0); fill-rule: nonzero; opacity: 1;" transform=" matrix(1 0 0 1 0 0) " stroke-linecap="round" />
</g>
</svg>